<svg xmlns="http://www.w3.org/2000/svg" viewBox="0 0 24 24">
  <path d="M12,1C5.99.94,1.07,5.76,1,11.77c.02,4.68,3.06,8.81,7.52,10.23.55.1.75-.23.75-.52v-1.83c-3.06.65-3.71-1.44-3.71-1.44-.2-.66-.64-1.22-1.22-1.58-1-.66.08-.65.08-.65.7.09,1.32.5,1.68,1.11.65,1.12,2.07,1.52,3.2.89.06-.55.3-1.06.7-1.44-2.44-.27-5-1.19-5-5.32-.02-1.08.38-2.12,1.11-2.91-.33-.92-.29-1.94.11-2.84,0,0,.93-.29,3,1.1,1.8-.48,3.7-.48,5.5,0,2.1-1.39,3-1.1,3-1.1.4.9.44,1.92.11,2.84.75.77,1.17,1.81,1.17,2.89,0,4.14-2.58,5.05-5,5.32.54.52.81,1.25.75,2v2.95c0,.35.2.63.75.52,4.45-1.43,7.47-5.55,7.5-10.22-.07-6.01-4.99-10.83-11-10.77" fill="#335477" stroke-width="0"/>
</svg>